<?xml version="1.0" ?><!-- Uploaded to: SVG Repo, www.svgrepo.com, Generator: SVG Repo Mixer Tools -->
<svg width="800px" height="800px" viewBox="0 0 32 32" xmlns="http://www.w3.org/2000/svg"><title/><path d="M24.59,28.41A2,2,0,1,1,28,26.6,16,16,0,1,0,0,16a15.91,15.91,0,0,0,3.39,9.83,2,2,0,1,1,2.78,2.78,15.92,15.92,0,0,0,19.25.3A2,2,0,0,1,24.59,28.41Z" style="fill: #0bf"/><circle cx="5" cy="27" r="2" style="fill: none;stroke: #000000;stroke-linecap: round;stroke-linejoin: round;stroke-width: 2px" transform="translate(-17.63 11.44) rotate(-45)"/><circle cx="26" cy="27" r="2" style="fill: none;stroke: #000000;stroke-linecap: round;stroke-linejoin: round;stroke-width: 2px" transform="translate(-11.48 26.29) rotate(-45)"/><path d="M24,22l-4,5H10a5,5,0,0,0-5-5" style="fill: none;stroke: #000000;stroke-linecap: round;stroke-linejoin: round;stroke-width: 2px"/><line style="fill: none;stroke: #000000;stroke-linecap: round;stroke-linejoin: round;stroke-width: 2px" x1="20" x2="24.4" y1="4" y2="23.09"/><line style="fill: none;stroke: #000000;stroke-linecap: round;stroke-linejoin: round;stroke-width: 2px" x1="22.98" x2="26.01" y1="3.29" y2="2.57"/><line style="fill: none;stroke: #000000;stroke-linecap: round;stroke-linejoin: round;stroke-width: 2px" x1="14.07" x2="20.21" y1="5.41" y2="3.95"/></svg>